<svg xmlns="http://www.w3.org/2000/svg" viewBox="0 0 428 427">
  <title>BimmerStein Tuning Suite</title>
  <desc>A circular red BS monogram divided by a rising calibration sweep on black.</desc>
  <defs>
    <linearGradient id="background" x1="58" y1="35" x2="365" y2="397" gradientUnits="userSpaceOnUse">
      <stop offset="0" stop-color="#171b22"/>
      <stop offset="0.58" stop-color="#090b0f"/>
      <stop offset="1" stop-color="#020304"/>
    </linearGradient>
    <linearGradient id="red" x1="84" y1="71" x2="354" y2="358" gradientUnits="userSpaceOnUse">
      <stop offset="0" stop-color="#ff5964"/>
      <stop offset="0.48" stop-color="#e5484d"/>
      <stop offset="1" stop-color="#a81228"/>
    </linearGradient>
    <path id="bs-mark" d="M200.50,387.90C126.17,380.15 62.54,321.59 46.12,245.81C33.89,189.35 52.96,127.01 95.48,84.47C121.30,58.63 150.41,42.98 186.94,35.29C203.16,31.88 232.46,31.43 248.00,34.36C304.01,44.91 346.69,76.53 375.26,128.64C378.87,135.23 383.91,148.08 383.40,149.41C382.93,150.62 374.24,153.59 373.47,152.80C373.31,152.63 369.62,145.47 365.27,136.87C347.84,102.39 324.70,78.88 292.14,62.56C197.76,15.25 85.39,68.18 60.07,171.88C35.47,272.60 109.18,371.16 212.50,375.70C321.11,380.48 406.97,271.96 376.99,167.80C375.37,162.16 374.37,157.23 374.77,156.84C376.42,155.21 384.48,154.07 385.68,155.30C387.26,156.90 391.46,172.21 393.56,184.00C396.04,197.89 395.81,223.83 393.06,239.46C376.83,331.95 291.89,397.43 200.50,387.90ZM135.00,312.06C135.00,310.89 143.36,301.57 155.92,288.75L165.46,279.00L230.48,278.99C295.50,278.99 295.50,278.99 299.30,276.69C306.65,272.24 309.42,263.22 305.09,257.86C303.21,255.53 302.85,255.49 279.84,254.94C252.86,254.29 250.08,253.62 241.38,245.70C235.56,240.40 232.00,232.93 232.00,226.03C232.00,221.60 232.61,221.15 255.56,208.77C275.73,197.88 281.81,195.72 274.73,201.93C270.32,205.81 268.58,209.93 269.43,214.49C270.65,220.98 272.42,221.43 298.45,222.01C324.76,222.60 328.59,223.59 337.00,232.00C343.76,238.76 345.48,243.64 345.44,256.00C345.36,281.78 327.39,304.97 302.45,311.47C295.54,313.27 135.00,313.83 135.00,312.06ZM97.19,303.25C94.44,299.54 90.07,292.91 87.48,288.53L82.77,280.55L86.14,277.70C121.33,247.78 182.51,213.96 242.00,191.52C284.43,175.51 312.76,167.10 366.75,154.49C367.99,154.20 369.00,154.38 369.00,154.90C369.00,155.42 367.54,156.15 365.75,156.54C347.93,160.35 297.06,179.48 261.00,195.93C201.08,223.27 140.58,265.94 110.37,302.15C106.77,306.47 103.46,310.00 103.01,310.00C102.56,310.00 99.94,306.96 97.19,303.25ZM78.43,260.69C78.02,259.62 93.28,204.77 100.74,180.50L102.58,174.50L164.54,174.00C231.11,173.46 228.35,173.69 234.27,168.18C239.69,163.11 240.26,152.92 235.33,149.04C232.78,147.04 231.64,147.00 172.42,147.00C135.19,147.00 111.89,146.63 111.53,146.04C111.00,145.19 120.10,113.26 121.53,110.94C122.38,109.57 240.98,109.70 248.57,111.08C268.50,114.71 282.54,131.23 280.66,148.86C279.47,160.10 277.31,164.99 270.65,171.59C264.94,177.24 263.71,177.94 253.50,181.36C240.65,185.67 206.77,198.84 196.13,203.66C188.75,207.00 188.75,207.00 160.41,207.00C134.42,207.00 132.00,207.15 131.19,208.75C130.71,209.71 128.83,215.68 127.03,222.00C125.22,228.32 123.32,234.03 122.81,234.68C122.30,235.32 117.07,238.65 111.19,242.07C105.31,245.50 95.65,251.38 89.72,255.15C82.20,259.93 78.79,261.61 78.43,260.69Z"/>
  </defs>

  <rect x="2" y="2" width="424" height="423" rx="82" fill="#020305"/>
  <rect x="8" y="8" width="412" height="411" rx="76" fill="url(#background)"/>
  <use href="#bs-mark" transform="translate(3 4)" fill="#000" fill-rule="evenodd" opacity="0.72"/>
  <use href="#bs-mark" fill="url(#red)" fill-rule="evenodd"/>
  <circle cx="214" cy="210" r="174" fill="none" stroke="url(#red)" stroke-width="13"/>
</svg>
